<?xml version="1.0" encoding="UTF-8" standalone="no"?>
<!DOCTYPE svg PUBLIC "-//W3C//DTD SVG 1.1//EN" "http://www.w3.org/Graphics/SVG/1.1/DTD/svg11.dtd">
<svg width="100%" height="100%" viewBox="0 0 240 92" version="1.1" xmlns="http://www.w3.org/2000/svg" xmlns:xlink="http://www.w3.org/1999/xlink" xml:space="preserve" xmlns:serif="http://www.serif.com/" style="fill-rule:evenodd;clip-rule:evenodd;stroke-linejoin:round;stroke-miterlimit:2;">
    <g transform="matrix(1,0,0,1,-1.5,-0.951832)">
        <g transform="matrix(0.1,0,0,-0.1,0,93)">
            <path d="M165,905C113,887 56,823 33,757C19,718 15,675 15,585C15,481 18,458 38,415C81,321 152,271 243,270C302,270 355,291 399,333L432,365L425,290C415,194 408,174 368,150C325,124 238,124 135,150C92,161 55,170 53,170C51,170 50,140 52,103L55,35L105,22C133,14 205,8 265,7C386,6 448,21 509,67C545,95 590,179 590,222C590,276 596,280 680,280L758,280L762,473C765,653 766,667 787,696C807,724 886,768 897,757C899,754 896,733 891,709C885,685 880,630 880,588C880,451 933,355 1038,303C1088,279 1107,275 1185,275C1292,275 1343,295 1404,358L1444,399L1467,365C1480,345 1513,320 1547,303C1598,278 1616,275 1700,275C1768,275 1808,280 1843,293L1890,312L1890,460L1848,439C1790,409 1694,402 1651,424C1566,468 1553,674 1630,752C1654,776 1666,780 1714,780C1813,780 1806,789 1914,520L2011,278L1988,232C1956,167 1921,145 1854,145L1800,145L1800,12L1845,6C1953,-11 2060,40 2114,134C2134,167 2410,888 2410,905C2410,908 2370,910 2321,910L2231,910L2167,713C2132,604 2098,499 2092,480C2082,446 2082,446 2081,473C2080,489 2050,593 2013,705L1947,907L1804,915C1688,920 1650,919 1607,906C1546,888 1481,845 1462,808L1448,783L1396,836C1356,875 1329,892 1290,904C1203,930 1109,923 1018,885C1004,880 1000,883 1000,899C1000,918 994,920 948,920C884,920 819,890 784,844C769,825 754,810 750,810C746,810 737,833 730,860L718,910L452,910L438,830L402,861C335,920 252,936 165,905ZM371,764C416,741 433,692 433,584C434,472 415,432 354,412C229,370 153,492 191,672C212,768 288,807 371,764ZM1259,754C1299,721 1313,665 1308,570C1301,452 1267,410 1177,410C1090,410 1056,463 1056,595C1056,730 1090,780 1181,780C1217,780 1236,774 1259,754Z" style="fill:white;fill-rule:nonzero;"/>
        </g>
    </g>
</svg>
